<svg width="1181" height="650" viewBox="0 0 1181 650" fill="none" xmlns="http://www.w3.org/2000/svg">
<mask id="mask0_3364_5836" style="mask-type:alpha" maskUnits="userSpaceOnUse" x="0" y="0" width="1181" height="616">
<path d="M0 0L1181 0V616L0 616V0Z" fill="white"/>
</mask>
<g mask="url(#mask0_3364_5836)">
<path d="M1226.48 436.032C1226.59 399.333 1226.64 362.688 1226.7 325.99C1226.81 259.161 1226.91 192.279 1224.25 125.504C1222.67 85.5484 1219.95 44.8324 1204.73 7.86231C1202.5 2.37922 1199.89 -3.10386 1195.64 -7.28404C1191.35 -11.5185 1185.69 -14.07 1180.09 -16.1873C1146.37 -28.9992 1009.89 -30.0307 973.83 -30.9536C899.272 -32.7994 824.768 -34.6452 750.211 -36.4367C704.04 -37.5767 654.117 -37.631 616.757 -10.487C586.14 11.771 569.88 48.0897 548.344 79.1967C535.021 98.4146 510.712 131.096 486.947 136.253C474.222 139.022 461.007 137.773 448.009 137.773C419.296 137.773 390.582 144.125 364.587 156.231C332.774 170.998 303.244 197.273 297.534 231.854C293.401 256.61 301.939 282.559 295.304 306.772C287.745 334.459 262.403 353.188 237.605 367.629C212.807 382.069 185.725 395.478 169.736 419.311C160.111 433.643 154.237 453.241 151.79 470.233C148.908 490.157 154.564 509.374 145.536 528.701C139.391 541.839 128.46 552.045 117.258 561.219C100.236 575.171 81.746 587.712 67.3892 604.378C53.0323 621.045 43.026 643.249 47.0503 664.855C50.2044 681.902 61.8966 696.722 76.7973 705.571C94.9065 716.375 118.889 718.98 138.847 725.766C165.766 734.941 196.383 736.027 224.553 737.167C338.049 741.781 451.653 729.838 565.148 736.787C618.008 740.044 669.018 743.736 721.062 753.67C778.544 764.691 835.699 777.014 892.909 789.392C931.14 797.698 970.023 806.33 1008.96 802.855C1047.9 799.381 1187.38 781.737 1207.5 748.296C1224.47 720.12 1225.28 685.485 1225.55 652.641C1226.04 580.492 1226.32 508.235 1226.48 436.032Z" fill="#EDEFF2"/>
<path d="M1123.62 398.717C1123.98 396.654 1121.25 392.529 1118.25 392.581C1117.06 392.633 1115.93 392.89 1114.74 392.839C1111.59 392.684 1109.99 390.261 1108.75 388.198C1107.56 386.187 1105.13 383.867 1102.03 384.382C1097.64 385.104 1095.37 390.931 1090.36 386.548C1087.05 383.712 1086.85 379.69 1083.13 376.905C1080.6 374.998 1076.41 373.863 1073 374.946C1068.56 376.338 1066.86 380.721 1062.1 381.495C1056.84 382.371 1053.06 378.349 1051.36 375.462C1049.29 371.955 1048.57 368.191 1046.81 364.633C1045.21 361.333 1041.96 356.899 1036.12 357.002C1031.22 357.105 1028.99 360.199 1026.62 362.674C1023.47 365.871 1016.91 377.421 1009.57 376.029C1006.73 375.462 1005.29 373.193 1002.7 372.213C998.571 370.563 993.25 372.832 990.771 375.668C988.292 378.504 987.259 381.907 984.469 384.589C983.746 385.259 982.868 385.929 981.68 386.239C977.754 387.321 974.035 384.021 969.852 383.763C966.959 383.609 964.221 384.949 962.568 386.651C960.915 388.301 959.986 390.312 958.694 392.117C958.333 392.633 957.92 393.148 957.3 393.509C955.44 394.489 952.858 393.664 950.585 393.251C944.955 392.272 938.601 394.85 937 398.717H1123.62V398.717Z" fill="white"/>
<path d="M920.802 616.329H862.64V616.289H845.328V431.896H862.64V264.147H920.802V431.896H933.1V355H933V311H964V324H972V337H980V350.235H991.314V486.811H1043.73V616.34H955.918V616.306H933.1V616.289H920.802V616.329Z" fill="#D4DAE2"/>
<path d="M732.532 616.343H849.423V340.5H732.532V616.343Z" fill="#D4DAE2"/>
<path d="M591.969 309.898H508.21V635.628H591.969V309.898Z" fill="#D4DAE2"/>
<path d="M304.015 616.318H362.229V395.212H304.015V616.318Z" fill="#D4DAE2"/>
<path d="M434.1 616.342H492.314L492.314 358.367H434.1V616.342Z" fill="#D4DAE2"/>
<path d="M245.854 616.31H304.068V487.864H245.854V616.31Z" fill="#D4DAE2"/>
<path d="M391.319 616.328H508.21V422.087H391.319V616.328Z" fill="#D4DAE2"/>
<path d="M393 324V311H362L362 354H362.23V616.306H420.443V350.236H410V337H401V324H393Z" fill="#D4DAE2"/>
<path d="M1291.96 456C1292.43 453.281 1288.83 447.842 1284.88 447.91C1283.31 447.978 1281.81 448.318 1280.25 448.25C1276.1 448.046 1273.99 444.851 1272.35 442.132C1270.79 439.48 1267.59 436.421 1263.5 437.101C1257.72 438.053 1254.72 445.735 1248.12 439.956C1243.76 436.217 1243.49 430.915 1238.59 427.243C1235.25 424.728 1229.74 423.233 1225.24 424.66C1219.39 426.496 1217.14 432.274 1210.88 433.294C1203.94 434.45 1198.97 429.147 1196.72 425.34C1194 420.717 1193.04 415.754 1190.73 411.064C1188.62 406.713 1184.33 400.866 1176.64 401.002C1170.17 401.138 1167.24 405.217 1164.11 408.48C1159.96 412.695 1151.31 427.923 1141.65 426.088C1137.9 425.34 1136 422.349 1132.59 421.057C1127.15 418.882 1120.13 421.873 1116.87 425.612C1113.6 429.351 1112.24 433.838 1108.56 437.373C1107.61 438.257 1106.45 439.14 1104.89 439.548C1099.71 440.976 1094.81 436.625 1089.3 436.285C1085.48 436.081 1081.88 437.849 1079.7 440.092C1077.52 442.268 1076.29 444.919 1074.59 447.298C1074.12 447.978 1073.57 448.658 1072.75 449.134C1070.3 450.425 1066.9 449.338 1063.9 448.794C1056.48 447.502 1048.11 450.901 1046 456H1291.96V456Z" fill="white"/>
<path d="M703.391 616.306H761.604V350.236H703.391V616.306Z" fill="#EDEFF2"/>
<path d="M587.041 616.315H703.417V513.341H587.041V616.315Z" fill="#EDEFF2"/>
<path d="M703.406 350.232H750.668V337.238H703.406V350.232Z" fill="#EDEFF2"/>
<path d="M703.441 337.268H742.078V324.274H703.441V337.268Z" fill="#EDEFF2"/>
<path d="M703.401 324.251H733.877V311.257H703.401V324.251Z" fill="#EDEFF2"/>
<path d="M591.938 635.594H650.151V369.524H591.938V635.594Z" fill="#D4DAE2"/>
<path d="M708.29 395.235H650.129V616.342H708.29V395.235Z" fill="#D4DAE2"/>
<path d="M573.781 369.52H621.044V356.526H573.781V369.52Z" fill="#D4DAE2"/>
<path d="M301 580.994H348.263V568H301V580.994Z" fill="#EDEFF2"/>
<path d="M613.447 452.994H689.946V440H613.447V452.994Z" fill="#EDEFF2"/>
<path d="M613.447 479.773H689.946V466.779H613.447V479.773Z" fill="#EDEFF2"/>
<path d="M613.447 506.994H689.946V494H613.447V506.994Z" fill="#EDEFF2"/>
<path d="M311 552.994H387.499V540H311V552.994Z" fill="#EDEFF2"/>
<path d="M462.183 112.662C462.632 110.101 459.169 104.915 455.449 104.979C453.974 105.043 452.499 105.427 451.024 105.299C447.112 105.107 445.059 102.034 443.52 99.537C441.981 96.976 438.967 94.095 435.119 94.7352C429.603 95.6315 426.781 102.93 420.496 97.4882C416.391 93.9029 416.071 88.9091 411.389 85.4518C408.182 83.0829 402.987 81.6744 398.69 82.9549C393.11 84.6835 390.994 90.1895 385.094 91.1499C378.488 92.2383 373.742 87.1804 371.625 83.5951C369.06 79.2415 368.098 74.5038 365.917 70.0221C363.865 65.8606 359.825 60.3546 352.513 60.4826C346.356 60.6106 343.599 64.5161 340.584 67.5892C336.672 71.6227 328.463 86.092 319.292 84.3634C315.7 83.6591 313.904 80.8421 310.697 79.5616C305.503 77.5129 298.897 80.3299 295.754 83.8512C292.612 87.3725 291.393 91.6621 287.866 94.9913C286.968 95.8876 285.813 96.6559 284.402 97.0401C279.464 98.3846 274.846 94.223 269.587 93.9029C265.932 93.7108 262.532 95.3754 260.48 97.4882C258.364 99.601 257.209 102.034 255.606 104.339C255.157 104.979 254.644 105.619 253.874 106.067C251.565 107.284 248.295 106.259 245.473 105.747C238.482 104.531 230.465 107.732 228.477 112.598H462.183V112.662Z" fill="#EDEFF2"/>
<path d="M883.774 525.65C865.516 532.096 843.449 531.447 826.817 520.78C810.464 510.299 795.597 502.739 775.481 503.11C757.502 503.435 742.636 513.128 725.26 515.215C711.463 516.838 697.432 510.855 687.444 501.209C677.688 491.794 671.184 477.464 675.458 464.617C677.688 457.892 682.519 452.327 685.307 445.788C691.718 430.715 674.854 421.625 679.035 405.764C682.612 392.269 697.432 382.668 697.2 368.709C697.061 358.506 689.116 350.575 686.329 341.161C683.495 331.653 684.145 320.94 689.116 312.268C692.74 305.868 698.594 300.627 705.423 297.752C711.509 295.154 718.338 295.108 723.03 289.775C731.439 280.314 734.506 270.018 746.027 263.108C755.783 257.264 768.652 256.893 779.848 257.914C804.703 260.186 828.861 273.311 842.845 294.181C847.816 301.555 851.393 309.16 851.532 317.926C851.672 327.526 851.672 337.219 857.572 345.381C862.543 352.245 870.487 356.233 878.339 359.341C886.236 362.448 894.459 364.952 901.381 369.822C908.304 374.692 913.786 382.668 912.996 391.063C912.299 398.112 907.421 404.234 906.771 411.283C905.609 424.083 917.967 433.405 925.586 443.794C936.271 458.31 938.037 478.855 929.999 494.994C920.754 513.545 903.937 517.766 886.329 524.769C885.447 525 884.61 525.325 883.774 525.65Z" fill="#0E2B5C"/>
<path d="M750.858 286.064C756.898 282.539 763.913 280.916 770.928 280.638C777.943 280.36 784.958 281.287 791.741 282.957C805.4 286.389 817.804 294.505 826.445 305.635C830.719 311.247 834.017 317.601 836.015 324.418C838.013 331.235 838.384 338.378 838.292 345.334C838.245 352.337 837.734 359.294 837.966 366.158C838.106 369.589 838.524 372.975 839.592 376.175C840.614 379.329 842.38 382.297 845.028 384.198C847.63 386.146 850.975 386.981 854.319 387.398C857.711 387.816 861.242 387.816 864.726 388.28C871.695 389.207 878.756 390.877 884.842 394.865C887.816 396.859 890.51 399.642 891.811 403.12C893.158 406.599 892.879 410.448 891.997 413.926C890.928 417.451 888.93 420.419 887.537 423.48C886.143 426.587 885.26 429.88 884.935 433.266C884.285 440.083 886.05 446.9 888.466 453.347C890.835 459.84 893.716 466.286 895.388 473.104C896.224 476.536 896.689 480.014 896.642 483.539C896.596 487.063 895.946 490.541 894.831 493.881C892.554 500.513 888.234 506.403 882.612 510.576C888.094 506.263 892.229 500.327 894.366 493.742C896.55 487.156 896.271 479.967 894.459 473.336C892.694 466.657 889.813 460.303 887.304 453.764C884.796 447.271 882.845 440.268 883.402 433.126C883.681 429.555 884.563 426.077 886.004 422.784C887.444 419.538 889.395 416.616 890.324 413.416C891.114 410.216 891.346 406.784 890.138 403.723C888.977 400.662 886.608 398.204 883.82 396.349C878.152 392.639 871.277 391.016 864.494 390.135C861.102 389.671 857.618 389.671 854.087 389.3C850.603 388.882 846.84 388.048 843.82 385.775C840.8 383.549 838.803 380.21 837.734 376.778C836.619 373.346 836.201 369.775 836.062 366.25C835.876 359.201 836.387 352.244 836.48 345.334C836.573 338.424 836.201 331.467 834.343 324.882C832.438 318.296 829.325 312.082 825.237 306.563C816.921 295.571 804.842 287.455 791.509 283.884C784.819 282.076 777.897 281.009 770.928 281.102C764.006 281.241 756.991 282.678 750.858 286.064Z" fill="#7BADDD"/>
<path d="M838.85 440.501C839.501 456.269 835.83 468.049 821.428 475.84C809.953 482.055 796.202 484.096 783.519 484.374C762.241 484.884 738.548 479.411 722.659 464.524C719.779 461.834 716.991 458.495 716.806 454.553C716.62 450.982 718.571 447.597 718.757 443.979C719.036 437.904 714.343 432.895 712.206 427.237C709.419 419.724 711.324 411.33 713.832 403.724C716.341 396.118 719.454 388.419 719.082 380.442C718.618 370.054 712.346 361.01 707.375 351.92C702.357 342.83 698.455 331.746 702.729 322.285C705.563 316.024 712.253 311.247 719.129 310.505C726.376 309.717 732.88 317.972 737.526 322.517C743.751 328.639 750.72 334.065 758.199 338.564C768.56 344.824 779.942 349.462 789.651 356.651C795.552 361.01 801.87 366.946 804.657 373.903C807.816 381.694 802.288 389.254 808.978 396.442C813.298 401.08 819.942 402.657 825.192 406.228C836.388 413.927 838.339 428.072 838.85 440.501Z" fill="#061F33"/>
<path d="M721.404 528.617C736.317 505.661 745.608 477.463 732.646 451.538C731.346 448.895 729.766 446.019 726.979 445.138C720.986 443.144 712.809 445.277 707.606 448.338C689.487 458.959 678.384 478.901 668.21 496.663C657.617 515.122 648.465 534.322 637.826 552.734C633.506 560.2 629.185 567.76 626.862 576.061C624.818 583.343 624.632 591.644 627.373 598.74C639.313 629.488 672.112 591.83 682.101 580.467C696.363 564.235 709.65 546.704 721.404 528.617Z" fill="#D43670"/>
<path d="M856.504 502.925C860.778 484.792 863.008 466.241 853.298 453.858C848.884 448.293 841.08 444.397 834.668 441.614C822.171 436.235 809.395 429 796.062 426.635C781.985 424.177 766.283 422.646 752.253 426.171C743.333 428.443 734.97 432.571 726.98 437.069C720.057 440.965 711.556 444.304 708.211 451.585C700.081 469.163 692.833 487.482 686.84 505.893C681.823 521.291 676.294 537.43 684.238 553.059C686.794 558.114 690.51 562.427 693.437 567.297C696.689 572.677 697.897 577.732 698.362 583.946C699.337 598.138 698.966 612.329 698.919 626.521C698.919 630.602 698.966 634.869 700.777 638.532C704.308 645.767 713.925 645.86 720.847 645.86C743.658 645.814 766.469 645.767 789.279 645.721C798.757 645.721 806.004 646.88 814.924 648.689C822.404 650.22 828.861 646.463 832.485 639.46C835.876 632.874 836.155 625.176 836.527 617.755C837.967 588.909 842.055 560.201 848.745 532.143C850.603 524.259 853.902 513.87 856.504 502.925Z" fill="#E94270"/>
<mask id="mask1_3364_5836" style="mask-type:alpha" maskUnits="userSpaceOnUse" x="680" y="424" width="181" height="226">
<path d="M856.504 502.925C860.778 484.792 863.008 466.241 853.298 453.858C848.884 448.293 841.08 444.397 834.668 441.614C822.171 436.235 809.395 429 796.062 426.635C781.985 424.177 766.283 422.646 752.253 426.171C743.333 428.443 734.97 432.571 726.98 437.069C720.057 440.965 711.556 444.304 708.211 451.585C700.081 469.163 692.833 487.482 686.84 505.893C681.823 521.291 676.294 537.43 684.238 553.059C686.794 558.114 690.51 562.427 693.437 567.297C696.689 572.677 697.897 577.732 698.362 583.946C699.337 598.138 698.966 612.329 698.919 626.521C698.919 630.602 698.966 634.869 700.777 638.532C704.308 645.767 713.925 645.86 720.847 645.86C743.658 645.814 766.469 645.767 789.279 645.721C798.757 645.721 806.004 646.88 814.924 648.689C822.404 650.22 828.861 646.463 832.485 639.46C835.876 632.874 836.155 625.176 836.527 617.755C837.967 588.909 842.055 560.201 848.745 532.143C850.603 524.259 853.902 513.87 856.504 502.925Z" fill="#E94270"/>
</mask>
<g mask="url(#mask1_3364_5836)">
<path d="M803.681 450.148C809.07 441.151 810.278 429.881 803.217 421.162C800.011 417.174 794.297 416.756 789.465 416.664C779.895 416.478 770.278 417.498 760.94 419.678C752.067 421.765 743.008 425.29 739.152 434.241C736.271 440.919 737.293 448.618 741.056 454.693C744.494 460.212 750.162 464.339 756.48 465.824C766.701 468.235 778.687 467.911 788.443 463.829C794.576 461.279 800.058 456.223 803.681 450.148Z" fill="#D43670"/>
</g>
<path d="M864.587 586.08C864.494 572.167 864.447 558.253 864.354 544.34C864.308 539.517 867.467 510.021 859.941 510.346C859.105 510.392 858.361 510.809 857.711 511.273C853.948 513.963 852.043 518.462 850.278 522.682C844.796 536.039 840.15 557.419 828.721 566.787C817.107 576.294 799.174 580.283 784.726 582.602C767.862 585.245 750.672 585.477 733.622 586.497C722.565 587.146 710.393 588.77 703.146 597.071C697.989 603.007 695.341 611.958 692.554 619.24C690.138 625.593 688.233 633.153 693.111 638.904C695.202 641.362 698.129 642.985 701.009 644.33C711.648 649.338 723.309 651.889 734.923 653.791C767.444 659.217 800.568 660.33 833.46 658.799C840.475 658.475 848.141 657.779 853.297 653.002C857.153 649.478 858.965 644.237 860.266 639.182C864.726 621.976 864.68 603.889 864.587 586.08Z" fill="#D43670"/>
<path d="M878.942 523.516C891.439 525.093 904.586 524.026 915.69 518.183C929.859 510.762 936.967 497.174 937.292 481.545C937.525 470.229 935.295 458.402 928.465 449.359C921.032 439.527 908.535 433.498 903.889 422.089C900.87 414.715 901.613 404.605 907.559 398.9C911.323 395.237 914.296 391.155 913.785 385.683C913.088 377.66 907.188 369.915 900.591 365.601C890.928 359.248 878.942 356.929 867.652 355.491C860.033 354.517 852.414 352.384 850.045 344.175C848.791 339.723 849.023 335.085 848.79 330.494C848.279 320.801 847.583 311.062 846.096 301.462C844.424 290.377 837.223 279.618 829.139 272.012C827.977 270.899 826.77 269.879 825.562 268.858C804.795 252.07 766.421 246.133 743.517 261.67C735.712 266.957 730.23 275.073 728.512 284.348C727.35 290.563 725.678 291.862 719.592 293.763C708.581 297.195 696.038 299.607 687.304 307.676C680.474 313.984 677.315 323.537 678.198 332.72C679.359 344.407 687.582 350.019 693.436 359.294C699.429 368.755 694.737 380.674 687.768 388.512C682.425 394.541 674.806 398.947 671.787 406.413C668.999 413.277 670.858 421.208 674.202 427.84C675.55 430.53 677.176 433.08 678.384 435.817C682.054 444.211 681.682 454.229 677.362 462.298" stroke="#0B2D4E" stroke-width="2.77673" stroke-miterlimit="10"/>
<path d="M914.297 541.65C918.106 548.514 921.916 555.424 925.632 562.334C933.205 576.386 947.235 607.645 924.75 615.343C913.414 619.239 906.956 615.436 899.477 607.181C871.184 576.015 847.026 541.14 827.885 503.667C820.777 489.707 801.869 453.394 824.819 445.092C832.067 442.449 840.429 443.098 847.212 446.715C850.324 448.385 853.065 450.611 855.714 452.976C872.299 467.724 884.099 486.785 894.599 506.078C901.103 518.044 907.746 529.823 914.297 541.65Z" fill="#E94270"/>
<path d="M727.227 597.606H634.346V615.769H727.227V597.606Z" fill="#7BADDD"/>
<path d="M650.266 599.362L626.849 480.221C626.247 477.078 623.471 474.813 620.277 474.813H464.457C462.189 474.813 460.246 475.923 459.042 477.586L451.869 486.09L458.256 484.703L481.349 601.997C481.95 605.139 484.727 607.404 487.92 607.404H643.741C647.906 607.357 651.099 603.475 650.266 599.362Z" fill="#7BADDD"/>
<path d="M480.747 615.769H636.567C640.779 615.769 643.972 611.933 643.139 607.774L619.722 488.632C619.12 485.489 616.343 483.225 613.15 483.225H457.33C453.118 483.225 449.925 487.061 450.758 491.22L474.175 610.362C474.777 613.458 477.554 615.769 480.747 615.769Z" fill="#0E2B5C"/>
<path d="M548.912 546.976L547.222 539.599H539.626L541.316 546.976H533.929L535.667 554.572H543.044L544.735 561.95H552.331L550.641 554.572H558.018L556.29 546.976H548.912Z" fill="#7BADDD"/>
<path d="M784.215 454.739C791.044 452.559 796.666 448.292 798.803 441.568C800.708 435.446 797.688 428.582 797.177 422.368C796.666 416.431 796.573 410.495 796.991 404.559C797.363 399.086 797.874 393.382 797.037 387.909C796.573 384.802 794.854 385.312 791.695 384.06C788.536 382.808 785.005 382.808 781.567 382.808C774.505 382.808 756.201 382.298 751.834 388.466C749.836 391.295 749.697 394.866 749.604 398.205C749.511 402.286 748.768 407.527 748.117 413.231C747.839 415.736 748.024 418.286 747.606 420.791C747.188 423.62 746.12 426.31 745.144 429C741.613 439.203 744.912 448.849 755.969 453.533C763.774 456.919 775.063 457.661 784.215 454.739Z" fill="#C77941"/>
<path d="M796.944 387.955C796.48 384.848 794.761 385.358 791.602 384.106C788.442 382.854 784.912 382.854 781.474 382.854C774.412 382.854 756.108 382.344 751.741 388.512C749.743 391.341 749.604 394.912 749.511 398.251C749.418 402.332 748.675 407.573 748.024 413.277C747.746 415.782 747.931 418.332 747.513 420.837C747.188 422.97 746.491 425.057 745.748 427.098C752.577 429.649 760.289 430.205 767.397 428.443C780.219 425.289 789.929 417.312 796.851 406.97C796.898 406.182 796.898 405.347 796.944 404.558C797.269 399.086 797.78 393.381 796.944 387.955Z" fill="#A85B24"/>
<path d="M807.166 347.839C807.12 338.471 805.819 329.566 803.403 322.146C792.95 290.238 753.136 282.4 729.117 305.264C702.357 330.772 712.578 391.805 740.778 413.277C748.304 419.028 758.571 421.022 767.723 418.564C795.412 411.144 807.352 377.149 807.166 347.839Z" fill="#C77941"/>
<path d="M801.915 348.628C814.18 341.95 817.943 358.877 815.853 367.318C814.97 370.796 813.623 374.182 811.439 377.057C808.512 380.907 800.196 387.307 795.365 383.086C793.181 381.185 792.949 377.938 792.902 375.017C792.717 367.225 793.646 353.173 801.915 348.628Z" fill="#C77941"/>
<path d="M807.258 323.491C796.294 289.914 754.343 281.612 729.07 305.728C723.495 311.062 719.453 317.879 716.759 325.485C717.316 326.366 717.967 327.248 718.71 328.082C722.194 332.071 726.979 334.714 731.765 336.94C745.841 343.433 760.986 347.236 776.225 350.065C777.34 350.297 778.455 350.483 779.616 350.714C783.797 351.549 787.978 352.569 791.649 354.703C802.009 360.778 797.549 374.181 805.121 380.071C805.818 380.581 806.515 380.952 807.212 381.184C809.999 371.167 811.347 360.593 811.254 350.483C811.161 340.604 809.767 331.236 807.258 323.491Z" fill="#A85B24"/>
<path d="M780.684 346.865C784.679 348.349 788.628 350.019 791.88 352.755C801.125 360.407 794.575 372.929 801.125 379.932C806.932 386.147 815.713 377.938 818.036 372.187C822.263 361.613 822.031 349.88 821.706 338.517C821.52 332.164 821.334 325.763 819.476 319.688C817.432 313.056 813.483 307.166 808.791 302.111C795.179 287.456 774.644 279.85 754.76 281.102C739.197 282.076 711.927 295.108 724.145 314.865C726.932 319.363 731.253 322.703 735.62 325.671C748.489 334.297 762.798 340.511 777.385 345.706C778.5 346.123 779.615 346.494 780.684 346.865Z" fill="#0E2B5C"/>
</g>
<path d="M632.08 309.898H462.708C451.035 309.898 441.53 300.411 441.53 288.757V202.697C441.53 191.043 451.035 181.556 462.708 181.556H632.08C643.754 181.556 653.258 191.043 653.258 202.697V288.757C653.258 300.359 643.702 309.898 632.08 309.898Z" fill="#59956F"/>
<path d="M625.367 343.674V284.685L579.085 309.899L625.367 343.674Z" fill="#59956F"/>
<path d="M525.52 252.887H616.327C618.858 252.887 620.976 250.824 620.976 248.246V246.338C620.976 243.812 618.858 241.698 616.327 241.698H525.52C522.989 241.698 520.871 243.812 520.871 246.338V248.246C520.871 250.824 522.989 252.887 525.52 252.887Z" fill="white"/>
<path d="M478.412 252.887H508.165C510.696 252.887 512.813 250.824 512.813 248.246V246.338C512.813 243.812 510.747 241.698 508.165 241.698H478.412C475.881 241.698 473.763 243.812 473.763 246.338V248.246C473.763 250.824 475.881 252.887 478.412 252.887Z" fill="white"/>
<path d="M584.838 214.867H508.135C505.604 214.867 503.486 216.93 503.486 219.508V221.416C503.486 223.994 505.604 226.057 508.135 226.057H584.838C587.369 226.057 589.487 223.994 589.487 221.416V219.508C589.487 216.981 587.421 214.867 584.838 214.867Z" fill="white"/>
<path d="M617.634 214.867H601.513C598.982 214.867 596.865 216.93 596.865 219.508V221.416C596.865 223.994 598.982 226.057 601.513 226.057H617.634C620.165 226.057 622.282 223.994 622.282 221.416V219.508C622.282 216.981 620.216 214.867 617.634 214.867Z" fill="white"/>
<path d="M478.434 277.552H542.742C545.273 277.552 547.391 275.49 547.391 272.912V271.004C547.391 268.426 545.273 266.363 542.742 266.363H478.434C475.903 266.363 473.785 268.426 473.785 271.004V272.912C473.785 275.49 475.903 277.552 478.434 277.552Z" fill="white"/>
<path d="M488.108 216.954V210.113H481.094V216.954H474.253V223.968H481.094V230.81H488.108V223.968H494.95V216.954H488.108Z" fill="white"/>
<path d="M803.774 590.763C805.725 590.438 807.63 590.114 809.581 589.789C819.012 588.305 828.397 586.543 837.735 584.548C856.225 580.514 874.808 577.082 893.67 575.319C895.667 575.134 897.665 574.948 899.663 574.809C908.118 574.16 916.945 573.974 924.657 578.009C932.369 582.044 938.548 591.551 936.643 600.734C935.296 607.181 930.371 612.05 924.889 614.508C919.407 616.966 913.368 617.384 907.421 617.801C888.188 619.1 869.001 620.398 849.767 621.697C840.243 622.346 830.72 622.995 821.242 623.645C812.136 624.294 802.938 625.546 793.832 625.546C789.976 625.546 785.656 624.804 782.45 622.253C777.944 618.682 775.249 611.076 774.784 605.14C774.552 602.079 775.156 598.322 777.525 596.421C778.78 595.401 780.406 595.076 781.939 594.798C789.186 593.406 796.48 591.969 803.774 590.763Z" fill="#E94270"/>
<path d="M782.218 619.981C777.573 620.955 773.949 624.99 769.303 626.381C766.005 627.355 762.474 626.845 759.315 625.639C756.388 624.526 753.415 623.969 750.441 622.996C748.118 622.254 744.959 620.677 742.451 621.187C735.9 622.532 729.349 627.216 723.356 630.23C722.009 630.926 720.569 631.622 719.082 631.343C717.596 631.065 716.388 629.257 717.224 628.051C715.505 629.628 713.229 632.828 710.488 631.622C709.373 631.112 708.676 629.628 709.28 628.561C708.351 629.581 707.328 630.694 706.028 631.204C704.727 631.715 703.008 631.483 702.218 630.323C701.846 629.767 701.754 629.071 701.707 628.422C701.614 626.149 702.265 623.877 703.24 621.836C707.932 611.633 718.525 604.027 727.538 597.952C729.117 596.885 730.743 595.772 732.601 595.215C734.227 594.705 735.993 594.659 737.712 594.659C748.908 594.613 760.104 596.421 770.697 599.992C772.973 600.781 775.528 600.085 777.805 599.668C779.477 599.343 781.289 599.018 782.915 599.529C784.773 600.085 786.214 601.523 787.329 603.1C789.419 605.975 790.999 609.778 790.72 613.395C790.534 616.132 790.302 619.1 787.096 619.656C785.796 619.888 784.448 619.749 783.101 619.888C782.869 619.842 782.544 619.888 782.218 619.981Z" fill="#C77941"/>
<g clip-path="url(#clip0_3364_5836)">
<rect x="307" y="636.124" width="188.098" height="13.111" rx="6.55549" fill="#262C38" fill-opacity="0.1"/>
<path d="M425.572 548.745C424.047 548.745 422.8 547.497 422.8 545.972V515.275C422.8 502.562 412.497 492.253 399.792 492.253C387.086 492.253 376.784 502.562 376.784 515.275V545.972C376.784 547.497 375.536 548.745 374.012 548.745C372.487 548.745 371.24 547.497 371.24 545.972V515.275C371.24 499.511 384.037 486.705 399.792 486.705C415.546 486.705 428.344 499.511 428.344 515.275V545.972C428.344 547.497 427.097 548.745 425.572 548.745Z" fill="#0E2B5C"/>
<path d="M418.873 530.439H335.203L329.659 641.113H424.417L418.873 530.439Z" fill="#7BADDD"/>
<path d="M440.541 530.439H418.873L424.417 641.112H446.085L440.541 530.439Z" fill="#3D7ABE"/>
<path d="M463.503 569.272H402.009L396.465 641.112H469.047L463.503 569.272Z" fill="#FFC73C"/>
<path d="M485.171 569.271H463.503L469.047 641.112H490.715L485.171 569.271Z" fill="#EFB126"/>
<path d="M405.428 548.745C403.903 548.745 402.656 547.497 402.656 545.972V515.275C402.656 502.562 392.353 492.253 379.648 492.253C366.943 492.253 356.64 502.562 356.64 515.275V545.972C356.64 547.497 355.392 548.745 353.868 548.745C352.343 548.745 351.096 547.497 351.096 545.972V515.275C351.096 499.511 363.893 486.705 379.648 486.705C395.402 486.705 408.2 499.511 408.2 515.275V545.972C408.2 547.497 406.953 548.745 405.428 548.745Z" fill="#7BADDD"/>
<path d="M435.69 620.725C424.879 620.725 416.147 611.941 416.147 601.17V585.822C416.147 584.296 417.394 583.048 418.919 583.048C420.444 583.048 421.691 584.296 421.691 585.822V601.17C421.691 608.89 427.974 615.177 435.69 615.177C443.406 615.177 449.689 608.89 449.689 601.17V585.822C449.689 584.296 450.936 583.048 452.461 583.048C453.986 583.048 455.233 584.296 455.233 585.822V601.17C455.233 611.941 446.455 620.725 435.69 620.725Z" fill="white"/>
<path d="M366.989 564.978L355.855 555.593C354.7 554.622 352.99 554.622 351.789 555.593L340.747 564.978C340.054 565.579 339.638 566.457 339.638 567.382V591.328C339.638 593.039 341.024 594.472 342.78 594.472H365.002C366.712 594.472 368.144 593.085 368.144 591.328V567.382C368.144 566.457 367.728 565.579 366.989 564.978Z" fill="white"/>
<path d="M353.868 567.751C355.501 567.751 356.825 566.427 356.825 564.793C356.825 563.159 355.501 561.834 353.868 561.834C352.235 561.834 350.911 563.159 350.911 564.793C350.911 566.427 352.235 567.751 353.868 567.751Z" fill="#7BADDD"/>
</g>
<defs>
<clipPath id="clip0_3364_5836">
<rect width="195.596" height="162.997" fill="white" transform="translate(307 487)"/>
</clipPath>
</defs>
</svg>
