<svg width="60" height="39" viewBox="0 0 60 39" fill="none" xmlns="http://www.w3.org/2000/svg">
<path fill-rule="evenodd" clip-rule="evenodd" d="M29.9995 7.97411V6.61977H20.11L17.3078 3.81667C15.4058 1.91467 12.8743 0.866089 10.1872 0.866089C7.49292 0.866089 4.96141 1.91467 3.0594 3.81667L2.95058 3.92639C1.04948 5.82749 0 8.35901 0 11.0533C0 13.7467 1.04948 16.2791 2.95058 18.1811L4.48028 19.7036L2.95058 21.2342C1.04948 23.1362 0 25.6668 0 28.3611C0 31.0554 1.04948 33.5869 2.95058 35.4889L3.0594 35.5905C4.96141 37.4997 7.49292 38.542 10.1872 38.542C12.8743 38.542 15.4058 37.4997 17.3078 35.5905L20.11 32.7946H29.9995V31.4412H19.548L16.3528 34.6364C14.708 36.2812 12.5155 37.1877 10.1872 37.1877C7.85174 37.1877 5.66555 36.2812 4.01445 34.6364L3.90563 34.5276C0.507202 31.13 0.507202 25.5922 3.91193 22.1884L6.39668 19.7036L3.91193 17.2198C2.26083 15.5749 1.35344 13.3816 1.35344 11.0533C1.35344 8.72412 2.26083 6.53164 3.91193 4.87964L4.01445 4.77892C5.66555 3.12691 7.85174 2.21953 10.1872 2.21953C12.5155 2.21953 14.708 3.12691 16.3528 4.77892L19.548 7.97411H29.9995Z" fill="#F3B62C"/>
<path fill-rule="evenodd" clip-rule="evenodd" d="M55.133 23.1497C58.0099 26.0265 58.0099 30.6966 55.133 33.5734L55.0233 33.6813C53.5826 35.1166 51.7004 35.8342 49.8119 35.8342C47.9234 35.8342 46.042 35.1166 44.6005 33.6813L41.006 30.0868H29.9995V9.32664H41.006L44.6005 5.73306C46.042 4.29778 47.9234 3.57385 49.8119 3.57385C51.7004 3.57385 53.5826 4.29778 55.0233 5.73306L55.133 5.84097C58.0099 8.71871 58.0099 13.3887 55.133 16.2647L51.6869 19.7036L55.133 23.1497Z" fill="#F8D82B"/>
<path fill-rule="evenodd" clip-rule="evenodd" d="M55.5179 19.7036L57.0413 18.1811C58.9505 16.2791 60 13.7467 60 11.0533C60 8.35901 58.9505 5.82749 57.0413 3.92639L56.9397 3.81667C55.0377 1.91467 52.5062 0.866089 49.8119 0.866089C47.1176 0.866089 44.5861 1.91467 42.685 3.81667L39.8882 6.61977H29.9995V7.97411H40.4439L43.6454 4.77892C45.2902 3.12691 47.4836 2.21953 49.8119 2.21953C52.1402 2.21953 54.3335 3.12691 55.9783 4.77892L56.0872 4.87964C57.732 6.53164 58.6457 8.72412 58.6457 11.0533C58.6457 13.3816 57.732 15.5749 56.0872 17.2198L53.6024 19.7036L56.0872 22.1884C59.4919 25.5922 59.4919 31.13 56.0872 34.5276L55.9855 34.6364C54.3335 36.2812 52.1402 37.1877 49.8119 37.1877C47.4836 37.1877 45.2902 36.2812 43.6454 34.6364L40.4439 31.4412H29.9995V32.7946H39.8882L42.685 35.5905C44.5861 37.4997 47.1176 38.542 49.8119 38.542C52.5062 38.542 55.0377 37.4997 56.9397 35.5905L57.0413 35.4889C58.9505 33.5869 60 31.0554 60 28.3611C60 25.6668 58.9505 23.1362 57.0413 21.2342L55.5179 19.7036Z" fill="#EC982D"/>
<path fill-rule="evenodd" clip-rule="evenodd" d="M56.0872 22.1883C59.4919 25.5921 59.4919 31.13 56.0872 34.5275L55.9855 34.6363C54.3335 36.2811 52.1402 37.1876 49.8119 37.1876C47.4836 37.1876 45.2902 36.2811 43.6454 34.6363L40.4439 31.4411H29.9995V30.0868H41.006L44.6005 33.6813C46.042 35.1166 47.9234 35.8342 49.8119 35.8342C51.7004 35.8342 53.5826 35.1166 55.0233 33.6813L55.133 33.5734C58.0099 30.6965 58.0099 26.0265 55.133 23.1497L51.6869 19.7036L55.133 16.2647C58.0099 13.3887 58.0099 8.71868 55.133 5.84094L55.0233 5.73302C53.5826 4.29775 51.7004 3.57382 49.8119 3.57382C47.9234 3.57382 46.042 4.29775 44.6005 5.73302L41.006 9.3266H29.9995V7.97407H40.4439L43.6454 4.77887C45.2902 3.12687 47.4836 2.21948 49.8119 2.21948C52.1402 2.21948 54.3335 3.12687 55.9783 4.77887L56.0872 4.87959C57.732 6.5316 58.6457 8.72408 58.6457 11.0532C58.6457 13.3815 57.732 15.5749 56.0872 17.2197L53.6024 19.7036L56.0872 22.1883Z" fill="#FBE15B"/>
<path fill-rule="evenodd" clip-rule="evenodd" d="M29.9996 9.32664V30.0868H18.9868L15.3995 33.6813C13.957 35.1166 12.0694 35.8342 10.1872 35.8342C8.29779 35.8342 6.41017 35.1166 4.9749 33.6813L4.86698 33.5734C1.99014 30.6966 1.99014 26.0265 4.86698 23.1497L8.30498 19.7036L4.86698 16.2647C1.99014 13.3887 1.99014 8.71871 4.86698 5.84097L4.9749 5.73306C6.41017 4.29778 8.29779 3.57385 10.1872 3.57385C12.0694 3.57385 13.957 4.29778 15.3995 5.73306L18.9868 9.32664H29.9996Z" fill="#FBE15B"/>
<path fill-rule="evenodd" clip-rule="evenodd" d="M4.86698 5.84094C1.99014 8.71868 1.99014 13.3887 4.86698 16.2647L8.30498 19.7036L4.86698 23.1497C1.99014 26.0265 1.99014 30.6965 4.86698 33.5734L4.9749 33.6813C6.41017 35.1166 8.29779 35.8342 10.1872 35.8342C12.0694 35.8342 13.957 35.1166 15.3995 33.6813L18.9868 30.0868H29.9996V31.4411H19.548L16.3528 34.6363C14.708 36.2811 12.5155 37.1876 10.1872 37.1876C7.85174 37.1876 5.66555 36.2811 4.01445 34.6363L3.90564 34.5275C0.507204 31.13 0.507204 25.5921 3.91193 22.1883L6.39668 19.7036L3.91193 17.2197C2.26083 15.5749 1.35344 13.3815 1.35344 11.0532C1.35344 8.72408 2.26083 6.5316 3.91193 4.87959L4.01445 4.77887C5.66555 3.12687 7.85174 2.21948 10.1872 2.21948C12.5155 2.21948 14.708 3.12687 16.3528 4.77887L19.548 7.97407H29.9996V9.3266H18.9868L15.3995 5.73302C13.957 4.29775 12.0694 3.57382 10.1872 3.57382C8.29779 3.57382 6.41017 4.29775 4.9749 5.73302L4.86698 5.84094Z" fill="#F8D82B"/>
<path fill-rule="evenodd" clip-rule="evenodd" d="M39.8495 24.6218L39.6292 23.8673C39.774 24.111 39.8495 24.361 39.8495 24.6218Z" fill="#F3BE27"/>
<path fill-rule="evenodd" clip-rule="evenodd" d="M24.9788 28.5428C24.3169 28.5428 23.736 28.2416 23.5003 27.3225L23.3133 26.5931C23.057 25.5931 23.4752 24.5311 24.3052 24.0733L25.513 23.4078C26.2531 22.9996 26.7954 22.2442 26.9923 21.3431L27.067 20.9995C27.3862 19.5436 28.5472 18.5193 29.8799 18.5193H29.9033V27.3737L29.8269 27.3764C28.6794 27.4151 27.5544 27.7074 26.4815 28.1705C26.0094 28.3747 25.4716 28.5428 24.9788 28.5428Z" fill="#F8C630"/>
<path fill-rule="evenodd" clip-rule="evenodd" d="M26.4914 18.5408C26.4914 18.5408 24.5579 18.101 24.5705 15.6333C24.5768 14.6073 25.5148 12.4391 26.9662 11.7142C27.2009 11.5964 27.4141 11.5479 27.6074 11.5479C28.6119 11.5479 29.0715 12.8752 29.0715 12.8752C29.0715 12.8752 29.1434 15.9958 29.0715 17.1567C28.9986 18.3186 26.4914 18.5408 26.4914 18.5408Z" fill="#F8C630"/>
<path fill-rule="evenodd" clip-rule="evenodd" d="M22.9464 23.2909C22.4617 23.2909 20.9949 23.1255 20.3124 21.1992C19.9697 20.2315 20.1181 17.8745 21.2368 16.7C21.5444 16.3772 21.8609 16.2603 22.1604 16.2603C22.9509 16.2603 23.6119 17.0786 23.6119 17.0786C23.6119 17.0786 24.7378 19.9905 25.0624 21.1074C25.388 22.2244 23.1047 23.2837 23.1047 23.2837C23.1047 23.2837 23.0471 23.2909 22.9464 23.2909Z" fill="#F8C630"/>
<path fill-rule="evenodd" clip-rule="evenodd" d="M34.827 28.5428C34.3341 28.5428 33.7964 28.3746 33.3242 28.1705C32.2586 27.71 31.1407 27.4178 29.9995 27.3773V18.5201C31.3017 18.557 32.4258 19.5705 32.7388 20.9995L32.8134 21.343C33.0113 22.2441 33.5527 22.9995 34.2937 23.4078L35.4996 24.0733C36.3306 24.531 36.7487 25.5931 36.4933 26.5931L36.3054 27.3224C36.0698 28.2415 35.4888 28.5428 34.827 28.5428Z" fill="#F3BE27"/>
<path fill-rule="evenodd" clip-rule="evenodd" d="M29.9995 27.3773C29.9932 27.3764 29.9861 27.3764 29.9798 27.3764L29.9033 27.3737V18.5193H29.9258C29.951 18.5193 29.9753 18.5193 29.9995 18.5202V27.3773Z" fill="#F8C630"/>
<path fill-rule="evenodd" clip-rule="evenodd" d="M33.3144 18.5408C33.3144 18.5408 30.808 18.3186 30.7352 17.1567C30.6623 15.9958 30.7352 12.8752 30.7352 12.8752C30.7352 12.8752 31.1947 11.5479 32.1992 11.5479C32.3926 11.5479 32.6057 11.5964 32.8395 11.7142C34.2919 12.4391 35.2299 14.6073 35.2343 15.6333C35.2478 18.101 33.3144 18.5408 33.3144 18.5408Z" fill="#F3BE27"/>
<path fill-rule="evenodd" clip-rule="evenodd" d="M36.8603 23.2909C36.7595 23.2909 36.7011 23.2837 36.7011 23.2837C36.7011 23.2837 34.4178 22.2244 34.7433 21.1074C35.0689 19.9905 36.1948 17.0786 36.1948 17.0786C36.1948 17.0786 36.8549 16.2603 37.6453 16.2603C37.9439 16.2603 38.2614 16.3772 38.5689 16.7C39.6885 17.8745 39.8369 20.2315 39.4934 21.1992C38.8108 23.1255 37.3441 23.2909 36.8603 23.2909Z" fill="#F3BE27"/>
</svg>
